<svg width="106" height="30" viewBox="0 0 106 30" fill="none" xmlns="http://www.w3.org/2000/svg">
<path d="M14.22 12.2C14.31 12.39 14.72 12.33 14.6 12.08C13.85 10.42 13.22 9.26001 13.22 8.20001V7.82001H16.97V24.28C16.97 27.63 14.4 29.79 10.52 29.79H3.13V26.82H10.36C12.14 26.82 13.21 25.88 13.21 24.28V22.31C12.02 23.19 10.39 23.75 8.2 23.75C3.38 23.75 0 20.9 0 15.68C0 10.46 3.13 7.51001 7.79 7.51001C10.92 7.51001 12.89 8.89001 14.21 12.2H14.22ZM13.22 19.15V13.86C12.5 11.64 10.93 10.51 8.59 10.51C5.59 10.51 3.96001 12.33 3.96001 15.67C3.96001 19.01 5.74 20.74 8.94 20.74C10.85 20.74 12.23 19.99 13.23 19.14L13.22 19.15Z" fill="white"/>
<path d="M19.17 15.61C19.17 10.42 22.24 7.5 27.71 7.5C33.18 7.5 36.25 10.44 36.25 15.61C36.25 20.78 33.15 23.75 27.71 23.75C22.27 23.75 19.17 20.81 19.17 15.61ZM32.31 15.61C32.31 12.51 30.84 10.48 27.71 10.48C24.58 10.48 23.11 12.3 23.11 15.61C23.11 18.92 24.74 20.77 27.71 20.77C30.87 20.77 32.31 18.74 32.31 15.61Z" fill="white"/>
<path d="M52.56 12.2C52.65 12.39 53.06 12.33 52.94 12.08C52.19 10.42 51.56 9.26001 51.56 8.20001V7.82001H55.32V23.47H51.56V22.31C50.37 23.19 48.74 23.75 46.55 23.75C41.73 23.75 38.35 20.9 38.35 15.68C38.35 10.46 41.48 7.51001 46.14 7.51001C49.27 7.51001 51.24 8.89001 52.56 12.2ZM51.56 19.15V13.86C50.84 11.64 49.28 10.51 46.93 10.51C43.93 10.51 42.3 12.33 42.3 15.67C42.3 19.01 44.08 20.74 47.28 20.74C49.19 20.74 50.57 19.99 51.57 19.14L51.56 19.15Z" fill="white"/>
<path d="M66.02 7.81999H67.65V10.29H63.02V16.8C63.02 19.18 64.11 20.49 66.27 20.49H68.49V23.46H66.17C61.85 23.46 59.25 20.77 59.25 16.79V10.28H57V7.80999H59.25V2.67999H63.01V5.30999C63.01 6.65999 62.29 8.09999 61.16 9.09999C61 9.25999 61.19 9.53999 61.44 9.34999C62.66 8.43999 64.38 7.81999 66.01 7.81999H66.02Z" fill="white"/>
<path d="M78.29 7.51C82.73 7.51 86.49 9.98 86.33 14.46V16.02H73.69C73.78 19.27 75.22 20.75 78.29 20.75C80.39 20.75 81.98 19.97 83.17 18.34L85.71 19.34C84.99 21.97 81.99 23.75 78.29 23.75C72.78 23.75 69.75 20.87 69.75 15.61C69.75 10.35 72.75 7.5 78.29 7.5V7.51ZM82.36 13.05C82.14 11.42 80.45 10.48 78.29 10.48C75.97 10.48 74.66 11.33 74.06 13.05H82.35H82.36Z" fill="white"/>
<path d="M102.7 12.2C102.79 12.39 103.2 12.33 103.08 12.08C102.33 10.42 101.7 9.26 101.7 8.2V0H105.46V23.47H101.7V22.31C100.51 23.19 98.88 23.75 96.69 23.75C91.87 23.75 88.49 20.9 88.49 15.68C88.49 10.46 91.62 7.51 96.28 7.51C99.41 7.51 101.38 8.89 102.7 12.2ZM101.7 19.15V13.86C100.98 11.64 99.42 10.51 97.07 10.51C94.07 10.51 92.44 12.33 92.44 15.67C92.44 19.01 94.22 20.74 97.42 20.74C99.33 20.74 100.71 19.99 101.71 19.14L101.7 19.15Z" fill="white"/>
</svg>
