<svg width="57" height="56" viewBox="0 0 57 56" fill="none" xmlns="http://www.w3.org/2000/svg">
<path d="M44.4029 45.5782C43.4429 46.2082 42.2629 46.6282 40.8329 46.7582C38.8429 46.9482 36.9229 46.5282 35.4429 46.0382C36.3329 47.7882 36.5929 49.8682 36.1129 51.7782C36.3229 51.8682 36.5729 51.7982 36.7529 51.6482C36.9329 51.5082 37.0529 51.3082 37.1729 51.1082C37.4529 50.6382 37.7329 50.1682 38.0129 49.6982C38.3329 51.2782 38.3829 52.9682 37.8629 54.4982C37.8229 54.6282 37.7729 54.7782 37.8329 54.9082C37.9029 55.0482 38.0829 55.0982 38.2429 55.0982C38.9029 55.1182 39.5029 54.7282 40.0029 54.3082C41.4429 53.1082 42.5229 51.4882 43.0929 49.7082C43.1529 50.4182 43.2029 51.2282 43.0329 51.9282C43.4529 51.8782 43.8029 51.5782 44.0129 51.2082C44.2229 50.8482 44.3129 50.4282 44.3829 50.0082C44.6029 48.6282 44.6229 47.2182 44.4329 45.8382C44.4229 45.7482 44.4029 45.6582 44.3929 45.5682L44.4029 45.5782Z" fill="white"/>
<mask id="mask0_44_343" style="mask-type:luminance" maskUnits="userSpaceOnUse" x="35" y="45" width="10" height="11">
<path d="M44.4029 45.5782C43.4429 46.2082 42.2629 46.6282 40.8329 46.7582C38.8429 46.9482 36.9229 46.5282 35.4429 46.0382C36.3329 47.7882 36.5929 49.8682 36.1129 51.7782C36.3229 51.8682 36.5729 51.7982 36.7529 51.6482C36.9329 51.5082 37.0529 51.3082 37.1729 51.1082C37.4529 50.6382 37.7329 50.1682 38.0129 49.6982C38.3329 51.2782 38.3829 52.9682 37.8629 54.4982C37.8229 54.6282 37.7729 54.7782 37.8329 54.9082C37.9029 55.0482 38.0829 55.0982 38.2429 55.0982C38.9029 55.1182 39.5029 54.7282 40.0029 54.3082C41.4429 53.1082 42.5229 51.4882 43.0929 49.7082C43.1529 50.4182 43.2029 51.2282 43.0329 51.9282C43.4529 51.8782 43.8029 51.5782 44.0129 51.2082C44.2229 50.8482 44.3129 50.4282 44.3829 50.0082C44.6029 48.6282 44.6229 47.2182 44.4329 45.8382C44.4229 45.7482 44.4029 45.6582 44.3929 45.5682L44.4029 45.5782Z" fill="white"/>
</mask>
<g mask="url(#mask0_44_343)">
<path d="M60.0029 -1.21179H-1.01709V57.2582H60.0029V-1.21179Z" fill="white"/>
</g>
<path d="M56.8928 22.3382C56.8128 21.7782 55.8528 20.1782 50.3428 18.1682C45.0328 16.2382 42.3928 14.3082 40.3428 12.8782C39.3328 0.638249 28.4428 -0.711751 27.8928 0.248248C27.3328 1.20825 29.0828 2.10825 30.9328 5.45825C31.9328 7.27825 32.0028 9.53825 31.9828 10.4382C29.9528 10.3182 27.6428 10.4382 25.1328 10.9682C21.2828 3.87825 14.6628 2.54825 10.2428 2.14825C5.77281 1.74825 6.01281 3.42825 6.88281 3.90825C7.76281 4.38825 9.52281 5.50825 12.3928 8.15825C15.0028 10.5582 16.3628 14.1482 16.5928 14.7882C14.1328 16.7182 12.4828 18.8982 10.2328 20.4982C6.56281 23.1082 -0.157193 26.0282 0.00280651 28.1882C0.162807 30.3482 6.07281 33.3182 14.1428 28.1882C14.1428 28.1882 13.6628 36.8382 7.75281 47.2582C7.75281 47.2582 14.3028 60.3183 32.0428 54.0683C32.0428 54.0683 30.6828 49.0182 32.6828 44.2882C32.6828 44.2882 36.5928 46.6083 40.8328 46.2083C45.0628 45.8083 47.0628 42.9183 47.9428 39.5583C48.8228 36.1883 46.3428 31.3082 46.3428 28.2582C46.3428 25.2082 46.2628 24.4883 46.2628 24.4883C46.2628 24.4883 47.0028 25.7983 51.7728 25.2882C55.5228 24.8883 56.9628 22.8882 56.8828 22.3282L56.8928 22.3382ZM26.7528 30.5583C25.6228 30.7283 24.4928 29.4482 24.2328 27.6882C23.9728 25.9382 24.6728 24.3783 25.8028 24.1982C26.9328 24.0282 28.0628 25.3082 28.3228 27.0682C28.5828 28.8182 27.8828 30.3783 26.7528 30.5583ZM41.5128 22.2183C42.3828 22.1782 43.1428 23.2882 43.2028 24.6982C43.2628 26.1082 42.6128 27.2882 41.7428 27.3282C40.8728 27.3682 40.1128 26.2582 40.0528 24.8482C39.9928 23.4382 40.6428 22.2583 41.5128 22.2183ZM46.5828 34.8083C46.8128 34.9482 46.7728 35.2983 46.6828 35.5583C46.2628 36.8283 45.4428 38.2282 44.3328 38.8783C44.4328 39.5882 44.4928 40.6883 44.3028 42.0683C45.8028 41.8083 46.9328 41.3782 47.4028 41.1882C47.2128 41.6582 46.9928 42.1182 46.7328 42.5482C45.9128 42.8082 44.7628 43.1082 43.4028 43.2582C42.8328 43.3182 42.2628 43.3483 41.7028 43.3483C38.7428 43.3483 36.0128 42.4783 33.7228 40.7783C33.4928 40.6083 33.4428 40.2782 33.6128 40.0482C33.7828 39.8182 34.1128 39.7682 34.3428 39.9382C36.8728 41.8082 39.8528 42.5782 43.2228 42.2182C43.4528 40.7782 43.3728 39.6482 43.2828 38.9782C41.6428 38.5583 39.4928 37.5683 38.5828 36.2383C38.5028 36.1183 38.4428 35.9683 38.4928 35.8382C38.5428 35.7183 38.6728 35.6482 38.8028 35.6482C38.9328 35.6482 39.0628 35.6883 39.1828 35.7383C40.2728 36.1383 43.0328 37.0382 43.5328 36.9682C44.3528 36.5782 45.1328 36.0682 45.7328 35.2482C45.8328 35.1082 45.9328 34.9582 46.0728 34.8582C46.2128 34.7582 46.4128 34.7183 46.5528 34.8083H46.5828Z" fill="white"/>
<mask id="mask1_44_343" style="mask-type:luminance" maskUnits="userSpaceOnUse" x="0" y="0" width="57" height="56">
<path d="M56.8928 22.3382C56.8128 21.7782 55.8528 20.1782 50.3428 18.1682C45.0328 16.2382 42.3928 14.3082 40.3428 12.8782C39.3328 0.638249 28.4428 -0.711751 27.8928 0.248248C27.3328 1.20825 29.0828 2.10825 30.9328 5.45825C31.9328 7.27825 32.0028 9.53825 31.9828 10.4382C29.9528 10.3182 27.6428 10.4382 25.1328 10.9682C21.2828 3.87825 14.6628 2.54825 10.2428 2.14825C5.77281 1.74825 6.01281 3.42825 6.88281 3.90825C7.76281 4.38825 9.52281 5.50825 12.3928 8.15825C15.0028 10.5582 16.3628 14.1482 16.5928 14.7882C14.1328 16.7182 12.4828 18.8982 10.2328 20.4982C6.56281 23.1082 -0.157193 26.0282 0.00280651 28.1882C0.162807 30.3482 6.07281 33.3182 14.1428 28.1882C14.1428 28.1882 13.6628 36.8382 7.75281 47.2582C7.75281 47.2582 14.3028 60.3183 32.0428 54.0683C32.0428 54.0683 30.6828 49.0182 32.6828 44.2882C32.6828 44.2882 36.5928 46.6083 40.8328 46.2083C45.0628 45.8083 47.0628 42.9183 47.9428 39.5583C48.8228 36.1883 46.3428 31.3082 46.3428 28.2582C46.3428 25.2082 46.2628 24.4883 46.2628 24.4883C46.2628 24.4883 47.0028 25.7983 51.7728 25.2882C55.5228 24.8883 56.9628 22.8882 56.8828 22.3282L56.8928 22.3382ZM26.7528 30.5583C25.6228 30.7283 24.4928 29.4482 24.2328 27.6882C23.9728 25.9382 24.6728 24.3783 25.8028 24.1982C26.9328 24.0282 28.0628 25.3082 28.3228 27.0682C28.5828 28.8182 27.8828 30.3783 26.7528 30.5583ZM41.5128 22.2183C42.3828 22.1782 43.1428 23.2882 43.2028 24.6982C43.2628 26.1082 42.6128 27.2882 41.7428 27.3282C40.8728 27.3682 40.1128 26.2582 40.0528 24.8482C39.9928 23.4382 40.6428 22.2583 41.5128 22.2183ZM46.5828 34.8083C46.8128 34.9482 46.7728 35.2983 46.6828 35.5583C46.2628 36.8283 45.4428 38.2282 44.3328 38.8783C44.4328 39.5882 44.4928 40.6883 44.3028 42.0683C45.8028 41.8083 46.9328 41.3782 47.4028 41.1882C47.2128 41.6582 46.9928 42.1182 46.7328 42.5482C45.9128 42.8082 44.7628 43.1082 43.4028 43.2582C42.8328 43.3182 42.2628 43.3483 41.7028 43.3483C38.7428 43.3483 36.0128 42.4783 33.7228 40.7783C33.4928 40.6083 33.4428 40.2782 33.6128 40.0482C33.7828 39.8182 34.1128 39.7682 34.3428 39.9382C36.8728 41.8082 39.8528 42.5782 43.2228 42.2182C43.4528 40.7782 43.3728 39.6482 43.2828 38.9782C41.6428 38.5583 39.4928 37.5683 38.5828 36.2383C38.5028 36.1183 38.4428 35.9683 38.4928 35.8382C38.5428 35.7183 38.6728 35.6482 38.8028 35.6482C38.9328 35.6482 39.0628 35.6883 39.1828 35.7383C40.2728 36.1383 43.0328 37.0382 43.5328 36.9682C44.3528 36.5782 45.1328 36.0682 45.7328 35.2482C45.8328 35.1082 45.9328 34.9582 46.0728 34.8582C46.2128 34.7582 46.4128 34.7183 46.5528 34.8083H46.5828Z" fill="white"/>
</mask>
<g mask="url(#mask1_44_343)">
<path d="M60.0029 -1.21173H-1.01709V57.2583H60.0029V-1.21173Z" fill="white"/>
</g>
</svg>
